<svg width="868" height="821" viewBox="0 0 868 821" fill="none" xmlns="http://www.w3.org/2000/svg">
<mask id="mask0_4210_1059" style="mask-type:alpha" maskUnits="userSpaceOnUse" x="0" y="-1" width="868" height="823">
<path d="M433.702 6.09326C478.766 6.09329 519.541 17.0135 549.035 34.644C578.539 52.2803 596.683 76.5804 596.683 103.334C596.683 130.089 578.539 154.389 549.035 172.025C519.541 189.655 478.766 200.575 433.702 200.575C388.638 200.575 347.862 189.656 318.368 172.025C288.865 154.389 270.721 130.088 270.721 103.334C270.721 76.5805 288.865 52.2802 318.368 34.644C347.862 17.0134 388.638 6.09326 433.702 6.09326Z" stroke="#FF0000" stroke-width="0.913058"/>
<path d="M433.702 6.09326C497.424 6.09331 555.091 21.5098 596.812 46.4106C638.543 71.3172 664.249 105.662 664.249 143.509C664.249 181.357 638.543 215.7 596.812 240.607C555.091 265.508 497.424 280.924 433.702 280.924C369.98 280.924 312.313 265.508 270.592 240.607C228.861 215.7 203.154 181.357 203.154 143.509C203.154 105.662 228.861 71.3172 270.592 46.4106C312.313 21.5099 369.98 6.09326 433.702 6.09326Z" stroke="#FF0000" stroke-width="0.913058"/>
<path d="M433.702 6.09326C514.317 6.09331 587.278 25.5978 640.069 57.1079C692.87 88.6236 725.424 132.098 725.424 180.031C725.424 227.964 692.871 271.439 640.069 302.955C587.278 334.465 514.317 353.968 433.702 353.968C353.088 353.968 280.127 334.465 227.335 302.955C174.534 271.439 141.979 227.964 141.979 180.031C141.98 132.098 174.534 88.6236 227.335 57.1079C280.127 25.5979 353.088 6.09326 433.702 6.09326Z" stroke="#FF0000" stroke-width="0.913058"/>
<path d="M433.702 6.09326C528.935 6.09326 615.131 30.6034 677.505 70.2056C739.884 109.811 778.382 164.47 778.382 224.771C778.382 285.072 739.884 339.731 677.505 379.336C615.131 418.939 528.935 443.449 433.702 443.449C338.469 443.449 252.273 418.939 189.899 379.336C127.52 339.731 89.0225 285.072 89.0225 224.771C89.0225 164.47 127.52 109.811 189.899 70.2056C252.273 30.6034 338.469 6.09327 433.702 6.09326Z" stroke="#FF0000" stroke-width="0.913058"/>
<path d="M433.702 6.09326C541.286 6.09333 638.664 34.9957 709.133 81.6997C779.605 128.406 823.121 192.88 823.121 264.033C823.121 335.185 779.605 399.658 709.133 446.365C638.664 493.069 541.286 521.971 433.702 521.971C326.118 521.971 228.739 493.069 158.271 446.365C87.7982 399.658 44.2823 335.185 44.2822 264.033C44.2822 192.88 87.7982 128.406 158.271 81.6997C228.739 34.9956 326.118 6.09326 433.702 6.09326Z" stroke="#FF0000" stroke-width="0.913058"/>
<path d="M54.9277 436.6C101.407 501.149 180.198 551.764 276.584 578.99C372.971 606.217 480.361 608.193 578.696 584.549C677.031 560.905 759.585 513.259 810.939 450.509" stroke="#FF0000" stroke-width="0.913058"/>
<path d="M433.702 6.09326C673.095 6.09326 866.948 155.61 866.948 339.816C866.948 524.022 673.095 673.539 433.702 673.539C194.309 673.538 0.456055 524.022 0.456055 339.816C0.456333 155.61 194.31 6.09336 433.702 6.09326Z" stroke="#FF0000" stroke-width="0.913058"/>
<path d="M433.702 6.09326C673.078 6.09326 866.948 146.698 866.948 366.751C866.948 586.805 673.078 727.41 433.702 727.41C194.345 727.41 0.456055 565.862 0.456055 366.751C0.456074 167.64 194.345 6.09337 433.702 6.09326Z" stroke="#FF0000" stroke-width="0.913058"/>
<path d="M433.702 32.5718C457.587 32.5718 479.189 38.3309 494.804 47.6177C510.428 56.9103 519.986 69.6834 519.986 83.7036C519.986 97.7238 510.428 110.497 494.804 119.79C479.189 129.076 457.587 134.834 433.702 134.834C409.817 134.834 388.215 129.076 372.601 119.79C356.976 110.497 347.418 97.7237 347.418 83.7036C347.418 69.6835 356.976 56.9102 372.601 47.6177C388.215 38.3309 409.817 32.5718 433.702 32.5718Z" stroke="#FF0000" stroke-width="0.913058"/>
<line x1="434.159" y1="5.63721" x2="434.159" y2="770.78" stroke="#FF0000" stroke-width="0.913058"/>
<circle cx="431.876" cy="388.208" r="382.115" stroke="#FF0000" stroke-width="0.913058"/>
<path d="M434.615 71.3774C434.615 71.3774 379.462 200.775 364 445C348.538 689.225 433.246 770.781 433.246 770.781" stroke="#FF0000" stroke-width="0.913058"/>
<path d="M434.615 71.3774C434.615 71.3774 331.777 205.084 286.389 434.792C241 664.5 433.246 770.891 433.246 770.891" stroke="#FF0000" stroke-width="0.913058"/>
<path d="M434.616 71.3774C434.616 71.3774 250 220 215.5 456.5C181 693 491.001 801 491.001 801" stroke="#FF0000" stroke-width="0.913058"/>
<path d="M434.615 71.3774C434.615 71.3774 205.275 178 162 443C118.726 708 479.5 799 479.5 799" stroke="#FF0000" stroke-width="0.913058"/>
<path d="M434.615 71.3775C434.615 71.3775 171 123 117 398.5C62.9998 674 448 816.5 448 816.5" stroke="#FF0000" stroke-width="0.913058"/>
<path d="M434.493 71.3774C434.493 71.3774 159.031 79.5949 79.8923 370.86C0.753675 662.126 437 821 437 821" stroke="#FF0000" stroke-width="0.913058"/>
<path d="M434.615 71.3779C434.615 71.3779 125.704 64.0734 46.5657 355.339" stroke="#FF0000" stroke-width="0.913058"/>
<path d="M434.615 71.378C434.615 71.378 162.981 43.8533 75.7842 237.878" stroke="#FF0000" stroke-width="0.913058"/>
<path d="M434.615 71.377C434.615 71.377 297.2 29.3763 168.002 100.138" stroke="#FF0000" stroke-width="0.913058"/>
<path d="M434.615 71.3763C434.615 71.3763 357.462 22.5276 220.047 56.3109" stroke="#FF0000" stroke-width="0.913058"/>
<path d="M434.614 71.3767C434.614 71.3767 374.352 1.07099 236.938 34.8543" stroke="#FF0000" stroke-width="0.913058"/>
<path d="M435.12 71.5223C435.12 71.5223 398.55 10.2018 350.158 8.37579" stroke="#FF0000" stroke-width="0.913058"/>
<path d="M434.745 71.5223C434.745 71.5223 421.832 6.09314 391.245 0.158422" stroke="#FF0000" stroke-width="0.913058"/>
<path d="M434.289 71.3779C434.289 71.3779 743.2 64.0734 822.339 355.339" stroke="#FF0000" stroke-width="0.913058"/>
<path d="M434.289 71.378C434.289 71.378 705.923 43.8533 793.12 237.878" stroke="#FF0000" stroke-width="0.913058"/>
<path d="M434.288 71.377C434.288 71.377 571.704 29.3763 700.901 100.138" stroke="#FF0000" stroke-width="0.913058"/>
<path d="M434.289 71.3783C434.289 71.3783 511.443 22.5296 648.857 56.3129" stroke="#FF0000" stroke-width="0.913058"/>
<path d="M434.29 71.3767C434.29 71.3767 494.552 1.07099 631.967 34.8543" stroke="#FF0000" stroke-width="0.913058"/>
<path d="M433.784 71.5223C433.784 71.5223 470.355 10.2018 518.746 8.37579" stroke="#FF0000" stroke-width="0.913058"/>
<path d="M434.159 71.5223C434.159 71.5223 447.072 6.09314 477.659 0.158422" stroke="#FF0000" stroke-width="0.913058"/>
<path d="M429.137 71.3774C429.137 71.3774 484.29 200.775 499.752 445C515.214 689.225 430.506 770.781 430.506 770.781" stroke="#FF0000" stroke-width="0.913058"/>
<path d="M429.137 71.3774C429.137 71.3774 531.975 205.084 577.363 434.792C622.752 664.5 430.506 770.891 430.506 770.891" stroke="#FF0000" stroke-width="0.913058"/>
<path d="M429.136 71.3774C429.136 71.3774 613.751 220 648.251 456.5C682.751 693 372.751 801 372.751 801" stroke="#FF0000" stroke-width="0.913058"/>
<path d="M429.137 71.3774C429.137 71.3774 658.477 178 701.752 443C745.026 708 384.252 799 384.252 799" stroke="#FF0000" stroke-width="0.913058"/>
<path d="M429.137 71.3775C429.137 71.3775 692.752 123 746.752 398.5C800.752 674 415.752 816.5 415.752 816.5" stroke="#FF0000" stroke-width="0.913058"/>
<path d="M429.258 71.3775C429.258 71.3775 704.72 79.595 783.859 370.86C862.997 662.126 426.751 821 426.751 821" stroke="#FF0000" stroke-width="0.913058"/>
</mask>
<g mask="url(#mask0_4210_1059)">
<circle cx="382.571" cy="382.571" r="382.571" transform="matrix(-1 0 0 1 814.447 5.63696)" fill="#F0AB9D"/>
</g>
</svg>
