<svg width="507" height="507" viewBox="0 0 507 507" fill="none" xmlns="http://www.w3.org/2000/svg">
<g clip-path="url(#clip0_2777_993)">
<path d="M253.5 505C392.4 505 505 392.4 505 253.5C505 114.6 392.4 2 253.5 2C114.6 2 2 114.6 2 253.5C2 392.4 114.6 505 253.5 505Z" fill="#F9F7F5" fill-opacity="0.05"/>
<path d="M253.5 1.375C392.745 1.375 505.625 114.255 505.625 253.5C505.625 392.745 392.745 505.625 253.5 505.625C114.255 505.625 1.375 392.745 1.375 253.5C1.375 114.255 114.255 1.375 253.5 1.375Z" stroke="#F9F7F5" stroke-opacity="0.4" stroke-width="1.25"/>
<path d="M253.499 134.717C316.914 134.717 368.322 186.125 368.322 249.54C368.322 312.955 316.914 364.363 253.499 364.363C190.084 364.363 138.676 312.955 138.676 249.54C138.676 186.125 190.084 134.717 253.499 134.717Z" stroke="#F9F7F5" stroke-opacity="0.4" stroke-width="1.25"/>
<path d="M258.031 291.933C260.551 291.933 262.594 293.976 262.594 296.496C262.594 299.016 260.551 301.059 258.031 301.059C255.512 301.059 253.469 299.016 253.469 296.496C253.469 293.976 255.512 291.933 258.031 291.933Z" fill="#E75437"/>
<path d="M179.933 181.873C231.894 154.837 290.449 165.508 310.996 204.997C331.543 244.486 306.679 298.563 254.719 325.6C202.759 352.637 144.203 341.965 123.656 302.476C103.109 262.987 127.973 208.91 179.933 181.873Z" stroke="#E75437" stroke-width="1.98031"/>
<path d="M179.933 181.873C231.894 154.837 290.449 165.508 310.996 204.997C331.543 244.486 306.679 298.563 254.719 325.6C202.759 352.637 144.203 341.965 123.656 302.476C103.109 262.987 127.973 208.91 179.933 181.873Z" stroke="#E75437" stroke-width="1.98031"/>
<path d="M184.851 349.144C190.282 349.144 194.685 344.741 194.685 339.31C194.685 333.879 190.282 329.476 184.851 329.476C179.42 329.476 175.017 333.879 175.017 339.31C175.017 344.741 179.42 349.144 184.851 349.144Z" fill="#E75437"/>
<path d="M59.4292 420.507C62.7103 420.507 65.3702 417.847 65.3702 414.566C65.3702 411.285 62.7103 408.625 59.4292 408.625C56.1481 408.625 53.4883 411.285 53.4883 414.566C53.4883 417.847 56.1481 420.507 59.4292 420.507Z" fill="#E75437"/>
<path d="M258.118 168.346C168.909 145.074 -77.1705 312.161 58.3236 415.59" stroke="#E75437" stroke-width="1.98031"/>
<path d="M253.545 247.115C194.751 268.023 265.383 355.817 318.191 235.678" stroke="#E75437" stroke-width="1.98031"/>
<path d="M202.015 181.661C206.816 181.661 210.708 177.769 210.708 172.968C210.708 168.167 206.816 164.275 202.015 164.275C197.214 164.275 193.322 168.167 193.322 172.968C193.322 177.769 197.214 181.661 202.015 181.661Z" fill="#E75437"/>
<path d="M202.016 184.924C208.619 184.924 213.972 179.572 213.972 172.969C213.972 166.366 208.619 161.013 202.016 161.013C195.413 161.013 190.061 166.366 190.061 172.969C190.061 179.572 195.413 184.924 202.016 184.924Z" stroke="#E75437" stroke-width="0.683176"/>
<path opacity="0.8" d="M202.01 187.652C210.122 187.652 216.698 181.075 216.698 172.963C216.698 164.851 210.122 158.275 202.01 158.275C193.898 158.275 187.322 164.851 187.322 172.963C187.322 181.075 193.898 187.652 202.01 187.652Z" stroke="#E75437" stroke-width="0.683176"/>
<path opacity="0.6" d="M202.011 190.387C211.632 190.387 219.432 182.587 219.432 172.966C219.432 163.345 211.632 155.545 202.011 155.545C192.389 155.545 184.59 163.345 184.59 172.966C184.59 182.587 192.389 190.387 202.011 190.387Z" stroke="#E75437" stroke-width="0.683176"/>
<path opacity="0.4" d="M202.015 193.122C213.146 193.122 222.169 184.099 222.169 172.968C222.169 161.838 213.146 152.814 202.015 152.814C190.884 152.814 181.861 161.838 181.861 172.968C181.861 184.099 190.884 193.122 202.015 193.122Z" stroke="#E75437" stroke-width="0.683176"/>
<path opacity="0.3" d="M202.011 195.852C214.651 195.852 224.897 185.606 224.897 172.966C224.897 160.326 214.651 150.08 202.011 150.08C189.371 150.08 179.125 160.326 179.125 172.966C179.125 185.606 189.371 195.852 202.011 195.852Z" stroke="#E75437" stroke-width="0.683176"/>
<path opacity="0.2" d="M202.012 197.903C215.784 197.903 226.948 186.739 226.948 172.967C226.948 159.195 215.784 148.031 202.012 148.031C188.24 148.031 177.076 159.195 177.076 172.967C177.076 186.739 188.24 197.903 202.012 197.903Z" stroke="#E75437" stroke-width="0.683176"/>
<path opacity="0.1" d="M202.01 200.636C217.291 200.636 229.679 188.248 229.679 172.967C229.679 157.686 217.291 145.298 202.01 145.298C186.729 145.298 174.341 157.686 174.341 172.967C174.341 188.248 186.729 200.636 202.01 200.636Z" stroke="#E75437" stroke-width="0.683176"/>
<path d="M184.853 352.842C192.322 352.842 198.378 346.787 198.378 339.317C198.378 331.848 192.322 325.792 184.853 325.792C177.383 325.792 171.328 331.848 171.328 339.317C171.328 346.787 177.383 352.842 184.853 352.842Z" stroke="#E75437" stroke-width="0.772842"/>
<path opacity="0.8" d="M184.85 355.925C194.027 355.925 201.466 348.486 201.466 339.309C201.466 330.132 194.027 322.693 184.85 322.693C175.673 322.693 168.234 330.132 168.234 339.309C168.234 348.486 175.673 355.925 184.85 355.925Z" stroke="#E75437" stroke-width="0.772842"/>
<path opacity="0.6" d="M184.858 359.024C195.742 359.024 204.565 350.201 204.565 339.317C204.565 328.433 195.742 319.609 184.858 319.609C173.974 319.609 165.15 328.433 165.15 339.317C165.15 350.201 173.974 359.024 184.858 359.024Z" stroke="#E75437" stroke-width="0.772842"/>
<path opacity="0.4" d="M184.849 362.113C197.441 362.113 207.648 351.905 207.648 339.314C207.648 326.723 197.441 316.515 184.849 316.515C172.258 316.515 162.05 326.723 162.05 339.314C162.05 351.905 172.258 362.113 184.849 362.113Z" stroke="#E75437" stroke-width="0.772842"/>
<path opacity="0.3" d="M184.847 365.196C199.146 365.196 210.737 353.605 210.737 339.306C210.737 325.007 199.146 313.416 184.847 313.416C170.548 313.416 158.957 325.007 158.957 339.306C158.957 353.605 170.548 365.196 184.847 365.196Z" stroke="#E75437" stroke-width="0.772842"/>
<path opacity="0.2" d="M184.857 367.525C200.436 367.525 213.066 354.895 213.066 339.316C213.066 323.737 200.436 311.107 184.857 311.107C169.278 311.107 156.648 323.737 156.648 339.316C156.648 354.895 169.278 367.525 184.857 367.525Z" stroke="#E75437" stroke-width="0.772842"/>
<path opacity="0.1" d="M184.849 370.613C202.135 370.613 216.149 356.599 216.149 339.313C216.149 322.026 202.135 308.013 184.849 308.013C167.562 308.013 153.549 322.026 153.549 339.313C153.549 356.599 167.562 370.613 184.849 370.613Z" stroke="#E75437" stroke-width="0.772842"/>
<path opacity="0.8" d="M257.459 305.741C262.249 305.741 266.132 301.858 266.132 297.068C266.132 292.278 262.249 288.395 257.459 288.395C252.669 288.395 248.786 292.278 248.786 297.068C248.786 301.858 252.669 305.741 257.459 305.741Z" stroke="#E75437" stroke-width="0.40341"/>
<path opacity="0.6" d="M257.461 307.358C263.142 307.358 267.748 302.753 267.748 297.071C267.748 291.39 263.142 286.784 257.461 286.784C251.779 286.784 247.174 291.39 247.174 297.071C247.174 302.753 251.779 307.358 257.461 307.358Z" stroke="#E75437" stroke-width="0.40341"/>
<path opacity="0.4" d="M257.46 308.966C264.033 308.966 269.361 303.638 269.361 297.065C269.361 290.493 264.033 285.165 257.46 285.165C250.888 285.165 245.56 290.493 245.56 297.065C245.56 303.638 250.888 308.966 257.46 308.966Z" stroke="#E75437" stroke-width="0.40341"/>
<path opacity="0.3" d="M257.464 310.585C264.928 310.585 270.978 304.535 270.978 297.071C270.978 289.607 264.928 283.557 257.464 283.557C250 283.557 243.95 289.607 243.95 297.071C243.95 304.535 250 310.585 257.464 310.585Z" stroke="#E75437" stroke-width="0.40341"/>
<path opacity="0.2" d="M257.465 311.796C265.597 311.796 272.19 305.203 272.19 297.071C272.19 288.939 265.597 282.347 257.465 282.347C249.333 282.347 242.741 288.939 242.741 297.071C242.741 305.203 249.333 311.796 257.465 311.796Z" stroke="#E75437" stroke-width="0.40341"/>
<path opacity="0.1" d="M257.46 313.407C266.483 313.407 273.798 306.092 273.798 297.069C273.798 288.046 266.483 280.731 257.46 280.731C248.437 280.731 241.122 288.046 241.122 297.069C241.122 306.092 248.437 313.407 257.46 313.407Z" stroke="#E75437" stroke-width="0.40341"/>
<path d="M59.4296 422.737C63.9422 422.737 67.6004 419.078 67.6004 414.566C67.6004 410.053 63.9422 406.395 59.4296 406.395C54.917 406.395 51.2588 410.053 51.2588 414.566C51.2588 419.078 54.917 422.737 59.4296 422.737Z" stroke="#E75437" stroke-width="0.466904"/>
<path opacity="0.8" d="M59.428 424.603C64.9721 424.603 69.4664 420.109 69.4664 414.565C69.4664 409.021 64.9721 404.526 59.428 404.526C53.884 404.526 49.3896 409.021 49.3896 414.565C49.3896 420.109 53.884 424.603 59.428 424.603Z" stroke="#E75437" stroke-width="0.466904"/>
<path opacity="0.6" d="M59.4285 426.471C66.004 426.471 71.3345 421.141 71.3345 414.565C71.3345 407.99 66.004 402.659 59.4285 402.659C52.853 402.659 47.5225 407.99 47.5225 414.565C47.5225 421.141 52.853 426.471 59.4285 426.471Z" stroke="#E75437" stroke-width="0.466904"/>
<path opacity="0.4" d="M59.4309 428.34C67.0379 428.34 73.2046 422.173 73.2046 414.566C73.2046 406.959 67.0379 400.792 59.4309 400.792C51.8239 400.792 45.6572 406.959 45.6572 414.566C45.6572 422.173 51.8239 428.34 59.4309 428.34Z" stroke="#E75437" stroke-width="0.466904"/>
<path opacity="0.3" d="M59.4274 430.205C68.0659 430.205 75.0687 423.203 75.0687 414.564C75.0687 405.926 68.0659 398.923 59.4274 398.923C50.789 398.923 43.7861 405.926 43.7861 414.564C43.7861 423.203 50.789 430.205 59.4274 430.205Z" stroke="#E75437" stroke-width="0.466904"/>
<path opacity="0.2" d="M59.4277 431.606C68.8398 431.606 76.4697 423.976 76.4697 414.564C76.4697 405.152 68.8398 397.522 59.4277 397.522C50.0157 397.522 42.3857 405.152 42.3857 414.564C42.3857 423.976 50.0157 431.606 59.4277 431.606Z" stroke="#E75437" stroke-width="0.466904"/>
<path opacity="0.1" d="M59.4282 433.476C69.8716 433.476 78.3378 425.01 78.3378 414.567C78.3378 404.123 69.8716 395.657 59.4282 395.657C48.9847 395.657 40.5186 404.123 40.5186 414.567C40.5186 425.01 48.9847 433.476 59.4282 433.476Z" stroke="#E75437" stroke-width="0.466904"/>
<path d="M253.857 172C296.856 172 331.714 206.858 331.714 249.857C331.714 292.856 296.856 327.714 253.857 327.714C210.858 327.714 176 292.856 176 249.857C176 206.858 210.858 172 253.857 172Z" stroke="#F9F7F5" stroke-opacity="0.4" stroke-width="1.25"/>
<path d="M301.029 200.13C305.824 200.13 309.71 196.243 309.71 191.449C309.71 186.655 305.824 182.768 301.029 182.768C296.235 182.768 292.348 186.655 292.348 191.449C292.348 196.243 296.235 200.13 301.029 200.13Z" fill="#E75437"/>
<path d="M301.03 203.391C307.624 203.391 312.969 198.046 312.969 191.452C312.969 184.858 307.624 179.513 301.03 179.513C294.436 179.513 289.091 184.858 289.091 191.452C289.091 198.046 294.436 203.391 301.03 203.391Z" stroke="#E75437" stroke-width="0.682248"/>
<path opacity="0.8" d="M301.025 206.117C309.126 206.117 315.693 199.55 315.693 191.449C315.693 183.348 309.126 176.781 301.025 176.781C292.924 176.781 286.356 183.348 286.356 191.449C286.356 199.55 292.924 206.117 301.025 206.117Z" stroke="#E75437" stroke-width="0.682248"/>
<path opacity="0.6" d="M301.026 208.846C310.634 208.846 318.424 201.057 318.424 191.449C318.424 181.841 310.634 174.052 301.026 174.052C291.418 174.052 283.629 181.841 283.629 191.449C283.629 201.057 291.418 208.846 301.026 208.846Z" stroke="#E75437" stroke-width="0.682248"/>
<path opacity="0.4" d="M301.028 211.576C312.144 211.576 321.154 202.565 321.154 191.45C321.154 180.335 312.144 171.324 301.028 171.324C289.913 171.324 280.902 180.335 280.902 191.45C280.902 202.565 289.913 211.576 301.028 211.576Z" stroke="#E75437" stroke-width="0.682248"/>
<path opacity="0.3" d="M301.027 214.303C313.65 214.303 323.882 204.071 323.882 191.448C323.882 178.825 313.65 168.593 301.027 168.593C288.405 168.593 278.172 178.825 278.172 191.448C278.172 204.071 288.405 214.303 301.027 214.303Z" stroke="#E75437" stroke-width="0.682248"/>
<path opacity="0.2" d="M301.024 216.35C314.777 216.35 325.926 205.201 325.926 191.448C325.926 177.695 314.777 166.546 301.024 166.546C287.271 166.546 276.122 177.695 276.122 191.448C276.122 205.201 287.271 216.35 301.024 216.35Z" stroke="#E75437" stroke-width="0.682248"/>
<path opacity="0.1" d="M301.027 219.08C316.287 219.08 328.658 206.709 328.658 191.449C328.658 176.189 316.287 163.818 301.027 163.818C285.767 163.818 273.396 176.189 273.396 191.449C273.396 206.709 285.767 219.08 301.027 219.08Z" stroke="#E75437" stroke-width="0.682248"/>
<g clip-path="url(#clip1_2777_993)">
<path d="M269.529 237.659C269.741 237.574 269.978 237.576 270.188 237.665C270.398 237.754 270.564 237.922 270.65 238.134L271.941 241.324C272.027 241.536 272.025 241.773 271.936 241.983C271.847 242.193 271.678 242.359 271.466 242.445C271.255 242.53 271.018 242.528 270.808 242.439C270.598 242.35 270.431 242.181 270.346 241.97L269.054 238.78C268.969 238.568 268.971 238.331 269.06 238.121C269.149 237.911 269.318 237.745 269.529 237.659ZM259.843 233.27L265.888 232.257C266.175 232.209 266.469 232.234 266.744 232.331C267.018 232.428 267.264 232.592 267.458 232.81C267.651 233.027 267.786 233.29 267.851 233.574C267.915 233.858 267.906 234.153 267.825 234.433L266.874 237.979L269.335 244.06L272.486 245.948C272.739 246.092 272.95 246.299 273.102 246.547C273.253 246.796 273.339 247.079 273.351 247.37C273.363 247.661 273.301 247.95 273.171 248.21C273.041 248.471 272.847 248.694 272.607 248.859L267.56 252.336C267.343 252.484 267.095 252.582 266.835 252.62C266.575 252.659 266.31 252.637 266.059 252.558L261.491 251.093C260.197 251.506 258.847 251.717 257.489 251.718C253.744 251.737 250.789 250.253 249.692 249.61C249.362 249.418 249.105 249.122 248.962 248.768C248.819 248.415 248.797 248.023 248.901 247.656C249.244 246.434 250.333 243.309 253.037 240.718C254.014 239.775 255.13 238.987 256.347 238.384L258.61 234.154C258.735 233.923 258.911 233.723 259.124 233.57C259.338 233.416 259.584 233.314 259.843 233.27ZM268.851 245.779C267.335 247.638 265.681 249.064 263.891 250.056L266.584 250.919L271.632 247.441L271.612 247.428L268.851 245.779ZM257.651 243.859C257.414 243.955 257.212 244.119 257.068 244.33C256.924 244.541 256.847 244.79 256.845 245.045C256.843 245.3 256.916 245.551 257.056 245.764C257.196 245.977 257.397 246.144 257.632 246.244C257.867 246.344 258.126 246.371 258.377 246.323C258.628 246.276 258.858 246.155 259.04 245.976C259.222 245.797 259.347 245.568 259.399 245.318C259.451 245.068 259.427 244.808 259.332 244.571C259.203 244.254 258.954 244.001 258.639 243.867C258.324 243.734 257.968 243.731 257.651 243.859ZM260.127 234.967L258.792 237.46C260.764 236.927 262.944 236.801 265.333 237.082L266.165 233.978L266.171 233.955L260.127 234.967Z" fill="#F9F7F5"/>
</g>
</g>
<defs>
<clipPath id="clip0_2777_993">
<rect width="507" height="507" fill="white"/>
</clipPath>
<clipPath id="clip1_2777_993">
<rect width="27.5338" height="27.5338" fill="white" transform="translate(253.33 261.853) rotate(-112.035)"/>
</clipPath>
</defs>
</svg>
